# xmcd
#
# Track frame offsets:
#	150
#	13878
#	29101
#	46611
#	61512
#	78240
#	97199
#	115225
#	129673
#	147959
#	165016
#	178326
#	195483
#	217064
#	228248
#
# Disc length: 3320 seconds
#
# Revision: 1
# Processed by: cddbd v1.5.2PL0 Copyright (c) Steve Scherf et al.
# Submitted via: audiograbber 1.83.01
#
DISCID=c90cf60f
DTITLE=Various Artist - Country Gospel Favoritter CD 1
DYEAR=2007
DGENRE=Country Gospel
TTITLE0=Synnøve Aanensen - I saw the light
TTITLE1=Curt and Roland - Himmelriket tilhör barnen
TTITLE2=Anita Hernes - Det var nåde, ja nåde
TTITLE3=Silvervoices - Are you washed in the blood, Where the soul never dies, 
TTITLE3=Will the circle be unbroken, I'll fly away
TTITLE4=Pelle Karlsson - När du går över floden
TTITLE5=Edith Aateigen - Jesus, jeg tror det du så
TTITLE6=Rikke Floug Tvedt - Blessed assurance
TTITLE7=PTA-Band - Will the circle be unbroken (instrumental)
TTITLE8=Per Tveten - Kan du kalle han venn (How long has it been)
TTITLE9=Country Gospel Team - Tag min hand
TTITLE10=Trond Erics - Just a closer walk with thee
TTITLE11=Gerhard Fjelde - Det er jubel og fryd
TTITLE12=Gerd Solveig Hansen - Det enda som bär
TTITLE13=Guttane - To my manison in the sky
TTITLE14=Marit and Irene - Det skal komme en dag
EXTD=P and C 1997 Lynor AS 0701/1
EXTT0=
EXTT1=
EXTT2=
EXTT3=
EXTT4=
EXTT5=
EXTT6=
EXTT7=
EXTT8=
EXTT9=
EXTT10=
EXTT11=
EXTT12=
EXTT13=
EXTT14=
PLAYORDER=
